# xmcd CD database file
# Copyright (C) 2005 Ti Kan
# 
# Track frame offsets:
#     150
#     17569
#     35379
#     49939
#     67197
#     91392
#     106025
#     119758
#     139594
#     155999
#     182983
#     202506
#     219913
#     233697
# 
# Disc length: 3263 seconds
# 
# Revision: 1
# Processed by: cddbd v1.5.1PL0 Copyright (c) Steve Scherf et al.
# Submitted via: DiscPlay 4.0.4
# 
DISCID=bf0cbd0e
DTITLE=Sandy Garwood - Late Arrival
DYEAR=1900
DGENRE=
TTITLE0=If I Were You
TTITLE1=Eagle Mountain Road
TTITLE2=Wild Rose
TTITLE3=That Easy
TTITLE4=Black Velvet Elvis
TTITLE5=Three Chords And A Melody
TTITLE6=Lovin' Lady
TTITLE7=Where Do You Go With The Music
TTITLE8=Anything But Love
TTITLE9=Fat Lady Blues
TTITLE10=Angel On My Shoulder
TTITLE11=Sunday Drive
TTITLE12=Give Me Time
TTITLE13=Late Arrival
EXTD=
EXTT0=
EXTT1=
EXTT2=
EXTT3=
EXTT4=
EXTT5=
EXTT6=
EXTT7=
EXTT8=
EXTT9=
EXTT10=
EXTT11=
EXTT12=
EXTT13=
PLAYORDER=
